<svg width="200" height="200" viewBox="0 0 200 200" xmlns="http://www.w3.org/2000/svg">
  <!-- Background circle -->
  <circle cx="100" cy="100" r="100" fill="#8b5cf6" opacity="0.1" />
  
  <!-- Face shape -->
  <circle cx="100" cy="85" r="55" fill="#ffe0b2" />
  
  <!-- Hair -->
  <path d="M60 85 A40 40 0 0 1 140 85 L140 50 A40 40 0 0 0 60 50 Z" fill="#212121" />
  <path d="M60 50 Q100 40 140 50" fill="#212121" />
  
  <!-- Eyes -->
  <ellipse cx="80" cy="80" rx="5" ry="4" fill="#3e2723" />
  <ellipse cx="120" cy="80" rx="5" ry="4" fill="#3e2723" />
  
  <!-- Eyebrows -->
  <path d="M75 70 Q80 68 85 70" stroke="#212121" stroke-width="2" fill="none" />
  <path d="M115 70 Q120 68 125 70" stroke="#212121" stroke-width="2" fill="none" />
  
  <!-- Nose -->
  <path d="M100 85 L97 100 L103 100 Z" fill="#ffcc80" />
  
  <!-- Mouth -->
  <path d="M85 110 Q100 120 115 110" stroke="#5d4037" stroke-width="2" fill="none" />
  
  <!-- Beard shadow -->
  <path d="M85 115 Q100 130 115 115 L115 125 Q100 140 85 125 Z" fill="#5d4037" opacity="0.2" />
  
  <!-- Shirt/top -->
  <path d="M60 145 L70 130 L100 155 L130 130 L140 145 L100 185 Z" fill="#7c3aed" />
  
  <!-- Collar -->
  <path d="M80 135 L100 155 L120 135 L115 125 L100 135 L85 125 Z" fill="#f5f5f5" />
  
  <!-- Accessory (watch) -->
  <circle cx="65" cy="135" r="6" fill="#e0e0e0" stroke="#616161" stroke-width="1" />
</svg>