<svg width="200" height="200" viewBox="0 0 200 200" xmlns="http://www.w3.org/2000/svg">
  <!-- Background circle -->
  <circle cx="100" cy="100" r="100" fill="#6366f1" opacity="0.1" />
  
  <!-- Face shape -->
  <circle cx="100" cy="85" r="55" fill="#ffe0b2" />
  
  <!-- Hair -->
  <path d="M55 85 A45 45 0 0 1 145 85 L145 65 A45 45 0 0 0 55 65 Z" fill="#8d6e63" />
  <path d="M60 65 Q100 35 140 65 L140 55 Q100 30 60 55 Z" fill="#8d6e63" />
  
  <!-- Eyes -->
  <circle cx="80" cy="80" r="5" fill="#3e2723" />
  <circle cx="120" cy="80" r="5" fill="#3e2723" />
  
  <!-- Eyebrows -->
  <path d="M75 70 Q80 65 85 70" stroke="#5d4037" stroke-width="2" fill="none" />
  <path d="M115 70 Q120 65 125 70" stroke="#5d4037" stroke-width="2" fill="none" />
  
  <!-- Nose -->
  <path d="M100 85 L95 100 L105 100 Z" fill="#ffcc80" />
  
  <!-- Mouth -->
  <path d="M85 110 Q100 120 115 110" stroke="#5d4037" stroke-width="2" fill="none" />
  
  <!-- Glasses -->
  <rect x="70" y="75" width="20" height="15" rx="5" ry="5" fill="none" stroke="#3949ab" stroke-width="2" />
  <rect x="110" y="75" width="20" height="15" rx="5" ry="5" fill="none" stroke="#3949ab" stroke-width="2" />
  <line x1="90" y1="82" x2="110" y2="82" stroke="#3949ab" stroke-width="2" />
  
  <!-- Suit -->
  <path d="M60 145 L70 130 L100 155 L130 130 L140 145 L100 185 Z" fill="#3949ab" />
  
  <!-- Shirt -->
  <path d="M80 135 L100 155 L120 135 L115 125 L100 135 L85 125 Z" fill="#e0e0e0" />
  
  <!-- Tie -->
  <path d="M100 135 L105 145 L100 155 L95 145 Z" fill="#d32f2f" />
</svg>