<svg width="200" height="200" viewBox="0 0 200 200" xmlns="http://www.w3.org/2000/svg">
  <!-- Background circle -->
  <circle cx="100" cy="100" r="100" fill="#f59e0b" opacity="0.1" />
  
  <!-- Face shape -->
  <circle cx="100" cy="85" r="55" fill="#ffe0b2" />
  
  <!-- Hair -->
  <path d="M60 85 A40 30 0 0 1 140 85 L140 60 A40 30 0 0 0 60 60 Z" fill="#78909c" />
  <path d="M60 60 Q100 30 140 60" fill="#78909c" />
  
  <!-- Eyes -->
  <ellipse cx="80" cy="80" rx="5" ry="4" fill="#3e2723" />
  <ellipse cx="120" cy="80" rx="5" ry="4" fill="#3e2723" />
  
  <!-- Eyebrows -->
  <path d="M75 70 Q80 65 85 70" stroke="#5d4037" stroke-width="2" fill="none" />
  <path d="M115 70 Q120 65 125 70" stroke="#5d4037" stroke-width="2" fill="none" />
  
  <!-- Nose -->
  <path d="M100 85 L95 100 L105 100 Z" fill="#ffcc80" />
  
  <!-- Mouth -->
  <path d="M85 110 Q100 120 115 110" stroke="#5d4037" stroke-width="2" fill="none" />
  
  <!-- Tech pattern background -->
  <path d="M60 145 L70 130 L100 155 L130 130 L140 145 L100 185 Z" fill="#d97706" />
  
  <!-- Tech shirt pattern -->
  <line x1="85" y1="140" x2="95" y2="150" stroke="#fff" stroke-width="1" opacity="0.5" />
  <line x1="105" y1="150" x2="115" y2="140" stroke="#fff" stroke-width="1" opacity="0.5" />
  <line x1="90" y1="155" x2="100" y2="165" stroke="#fff" stroke-width="1" opacity="0.5" />
  <line x1="100" y1="165" x2="110" y2="155" stroke="#fff" stroke-width="1" opacity="0.5" />
  
  <!-- Collar -->
  <path d="M85 135 L100 145 L115 135" stroke="#fff" stroke-width="2" fill="none" />
  
  <!-- Glasses -->
  <rect x="70" y="75" width="20" height="12" rx="4" ry="4" fill="none" stroke="#d97706" stroke-width="2" />
  <rect x="110" y="75" width="20" height="12" rx="4" ry="4" fill="none" stroke="#d97706" stroke-width="2" />
  <line x1="90" y1="81" x2="110" y2="81" stroke="#d97706" stroke-width="2" />
</svg>